name GIL04_fast2.mot
datacolumns 153
datarows 4
range 0.10833324 0.13333324
endheader

                time	           pelvis_tx	           pelvis_ty	           pelvis_tz	         pelvis_tilt	         pelvis_list	     pelvis_rotation	       hip_flexion_r	     hip_adduction_r	      hip_rotation_r	        knee_angle_r	       ankle_angle_r	    subtalar_angle_r	         mtp_angle_r	       hip_flexion_l	     hip_adduction_l	      hip_rotation_l	        knee_angle_l	       ankle_angle_l	    subtalar_angle_l	         mtp_angle_l	    lumbar_extension	      lumbar_bending	     lumbar_rotation	     ground_force_vx	     ground_force_vy	     ground_force_vz	     ground_force_px	     ground_force_py	     ground_force_pz	     ground_force_vx	     ground_force_vy	     ground_force_vz	     ground_force_px	     ground_force_py	     ground_force_pz	     ground_torque_x	     ground_torque_y	     ground_torque_z	     ground_torque_x	     ground_torque_y	     ground_torque_z	    ground_marker_px	    ground_marker_py	    ground_marker_pz	    ground_marker_px	    ground_marker_py	    ground_marker_pz	    ground_marker_px	    ground_marker_py	    ground_marker_pz	    ground_marker_px	    ground_marker_py	    ground_marker_pz	    ground_marker_px	    ground_marker_py	    ground_marker_pz	    ground_marker_px	    ground_marker_py	    ground_marker_pz	    ground_marker_px	    ground_marker_py	    ground_marker_pz	    ground_marker_px	    ground_marker_py	    ground_marker_pz	    ground_marker_px	    ground_marker_py	    ground_marker_pz	    ground_marker_px	    ground_marker_py	    ground_marker_pz	    ground_marker_px	    ground_marker_py	    ground_marker_pz	    ground_marker_px	    ground_marker_py	    ground_marker_pz	    ground_marker_px	    ground_marker_py	    ground_marker_pz	    ground_marker_px	    ground_marker_py	    ground_marker_pz	    ground_marker_px	    ground_marker_py	    ground_marker_pz	    ground_marker_px	    ground_marker_py	    ground_marker_pz	    ground_marker_px	    ground_marker_py	    ground_marker_pz	    ground_marker_px	    ground_marker_py	    ground_marker_pz	    ground_marker_px	    ground_marker_py	    ground_marker_pz	    ground_marker_px	    ground_marker_py	    ground_marker_pz	    ground_marker_px	    ground_marker_py	    ground_marker_pz	    ground_marker_px	    ground_marker_py	    ground_marker_pz	    ground_marker_px	    ground_marker_py	    ground_marker_pz	    ground_marker_px	    ground_marker_py	    ground_marker_pz	    ground_marker_px	    ground_marker_py	    ground_marker_pz	    ground_marker_px	    ground_marker_py	    ground_marker_pz	    ground_marker_px	    ground_marker_py	    ground_marker_pz	    ground_marker_px	    ground_marker_py	    ground_marker_pz	    ground_marker_px	    ground_marker_py	    ground_marker_pz	    ground_marker_px	    ground_marker_py	    ground_marker_pz	    ground_marker_px	    ground_marker_py	    ground_marker_pz	    ground_marker_px	    ground_marker_py	    ground_marker_pz	    ground_marker_px	    ground_marker_py	    ground_marker_pz	    ground_marker_px	    ground_marker_py	    ground_marker_pz	    ground_marker_px	    ground_marker_py	    ground_marker_pz	    ground_marker_px	    ground_marker_py	    ground_marker_pz	    ground_marker_px	    ground_marker_py	    ground_marker_pz	
          0.10833324	          1.24791539	          0.71731770	         -0.17471468	         -1.98737335	         -7.41692209	         -0.07050406	         32.64960098	         11.49821186	          3.73936725	        -31.55087852	          1.51249409	          0.00000000	          0.00000000	        -16.53840446	         -7.14161015	        -11.05810165	        -35.18434906	        -26.04686356	          0.00000000	          0.00000000	         -9.29767323	         11.55880928	         -2.73982453	        -96.86832662	        433.20359050	        -20.95184386	          1.35956335	          0.00000000	         -0.11832434	          0.00000000	          0.00000000	          0.00000000	          1.82533325	          0.00000000	         -0.22224718	          0.00000000	         -1.24485437	          0.00000000	          0.00000000	          0.00000000	          0.00000000	          1.18954086	          0.64704537	         -0.16486478	          1.18422961	          0.66236264	         -0.10238387	          1.18045378	          0.64656371	         -0.22715987	          1.34457254	          0.38318846	         -0.13697715	          1.07952762	          0.34460753	         -0.22578835	          1.34195936	          0.05579701	         -0.11640213	          0.81671464	          0.15611181	         -0.23374718	          1.24791539	          0.71731770	         -0.17471468	          1.25072837	          0.72908777	         -0.08175712	          1.24510241	          0.70554763	         -0.26767224	          1.10230601	          0.75804919	         -0.15368681	          1.10054350	          0.74800849	         -0.20735309	          1.35402024	          0.38246825	         -0.08737402	          1.07089746	          0.34726873	         -0.27496597	          1.34228480	          0.37971467	         -0.18351345	          1.09398592	          0.33613962	         -0.17037648	          1.34434402	          0.05787389	         -0.08305172	          0.81338811	          0.16217692	         -0.26754656	          1.34107578	          0.06300671	         -0.14428067	          0.81295288	          0.16499622	         -0.20581618	          1.12514651	          1.09715700	         -0.16608186	          1.20291603	          1.05474102	         -0.10098601	          1.20997214	          1.06283772	         -0.22900645	          1.20178676	          1.04763412	         -0.16877861	          1.23319709	          0.90669298	         -0.17497161	          1.32267654	          0.46334684	          0.00021370	          1.23889792	          0.41200364	         -0.28425142	          1.31719935	          0.53261113	         -0.06612290	          1.20134747	          0.47555965	         -0.21074791	          1.36262310	          0.46505031	         -0.08869113	          1.16114902	          0.39487246	         -0.20405480	          1.34979713	          0.16085838	         -0.01521974	          0.94431543	          0.14411756	         -0.27414575	          1.35272729	          0.21433219	         -0.07876392	          0.95351881	          0.22283839	         -0.25177914	          1.44063556	          0.03926561	         -0.12197977	          0.81366169	          0.06128958	         -0.23021254	
          0.11666657	          1.25968134	          0.71864784	         -0.17394553	         -2.02972984	         -7.65874672	          0.09465492	         31.82284546	         11.88909912	          3.90327978	        -31.84044075	          2.49384284	          0.00000000	          0.00000000	        -14.32952309	         -7.74866772	        -11.19714737	        -38.78154755	        -27.36555481	          0.00000000	          0.00000000	         -9.09841537	         11.84143543	         -2.82684731	        -94.17153437	        444.36467316	        -20.55093360	          1.36224292	          0.00000000	         -0.11911816	          0.00000000	          0.00000000	          0.00000000	          1.82595313	          0.00000000	         -0.22216045	          0.00000000	         -1.30763562	          0.00000000	          0.00000000	          0.00000000	          0.00000000	          1.20117712	          0.64851570	         -0.16363886	          1.19620943	          0.66401076	         -0.10118698	          1.19194233	          0.64779180	         -0.22589323	          1.35154748	          0.38294408	         -0.13711947	          1.10215461	          0.34174803	         -0.22640750	          1.34225798	          0.05581290	         -0.11674043	          0.83474761	          0.16024648	         -0.23364528	          1.25968134	          0.71864784	         -0.17394553	          1.26286125	          0.73073447	         -0.08101228	          1.25650144	          0.70656127	         -0.26687878	          1.11418307	          0.75973868	         -0.15250736	          1.11204350	          0.74932539	         -0.20606357	          1.36137056	          0.38204136	         -0.08759230	          1.09303832	          0.34450507	         -0.27549204	          1.34767950	          0.37847611	         -0.18314539	          1.12184465	          0.32976943	         -0.17302649	          1.34476018	          0.05781918	         -0.08339430	          0.83163530	          0.16618143	         -0.26748815	          1.34119117	          0.06295696	         -0.14461796	          0.83214802	          0.16868839	         -0.20577469	          1.13679230	          1.09871662	         -0.16529386	          1.21486282	          1.05634880	         -0.10029395	          1.22166777	          1.06462288	         -0.22831652	          1.21360958	          1.04930317	         -0.16805600	          1.24534941	          0.90846407	         -0.17452122	          1.33204830	          0.46322370	          0.00023027	          1.25847697	          0.41414407	         -0.28569356	          1.32686198	          0.53203881	         -0.06582285	          1.22002852	          0.47527519	         -0.21152538	          1.37065613	          0.46356437	         -0.08868397	          1.18533969	          0.39383408	         -0.20626967	          1.35247481	          0.16062166	         -0.01561200	          0.96202660	          0.14441453	         -0.27384329	          1.35560822	          0.21412985	         -0.07918887	          0.97413629	          0.22248960	         -0.25224966	          1.44091690	          0.03896110	         -0.12229965	          0.82708985	          0.06510338	         -0.22870694	
          0.12499990	          1.27114761	          0.72017503	         -0.17328985	         -2.14225197	         -7.84263372	          0.25746986	         30.95474625	         12.20130920	          3.92895555	        -31.85008240	          3.36209559	          0.00000000	          0.00000000	        -11.90516758	         -8.23138428	        -11.45908737	        -42.33335114	        -28.09718513	          0.00000000	          0.00000000	         -8.89308453	         12.01547813	         -2.85962129	        -88.90402279	        451.66786189	        -19.68691281	          1.36490649	          0.00000000	         -0.11988026	          0.00000000	          0.00000000	          0.00000000	          1.82649072	          0.00000000	         -0.22213721	          0.00000000	         -1.34509949	          0.00000000	          0.00000000	          0.00000000	          0.00000000	          1.21238697	          0.65028262	         -0.16258672	          1.20780408	          0.66586381	         -0.10017637	          1.20306075	          0.64935279	         -0.22482707	          1.35761392	          0.38275006	         -0.13716628	          1.12531471	          0.33949554	         -0.22699659	          1.34257913	          0.05584001	         -0.11701236	          0.85393804	          0.16429473	         -0.23335880	          1.27114761	          0.72017503	         -0.17328985	          1.27468371	          0.73248380	         -0.08036417	          1.26761150	          0.70786631	         -0.26621553	          1.12581348	          0.76180828	         -0.15137665	          1.12327278	          0.75105166	         -0.20484208	          1.36764467	          0.38159305	         -0.08768602	          1.11553872	          0.34229124	         -0.27595177	          1.35282600	          0.37808093	         -0.18309221	          1.14689410	          0.32608265	         -0.17444055	          1.34503090	          0.05778348	         -0.08365878	          0.85105288	          0.16999488	         -0.26726210	          1.34128237	          0.06296738	         -0.14485914	          0.85184813	          0.17294398	         -0.20555085	          1.14835238	          1.10061383	         -0.16456434	          1.22670245	          1.05826116	         -0.09972387	          1.23313236	          1.06661630	         -0.22775295	          1.22528267	          1.05123627	         -0.16747095	          1.25713456	          0.91045189	         -0.17412040	          1.34025168	          0.46296158	          0.00027118	          1.27785838	          0.41693342	         -0.28752071	          1.33567309	          0.53177375	         -0.06543916	          1.23885441	          0.47556967	         -0.21272071	          1.37789571	          0.46256286	         -0.08856253	          1.20739436	          0.39295802	         -0.20792261	          1.35435665	          0.16042769	         -0.01589573	          0.98092711	          0.14490390	         -0.27316019	          1.35746610	          0.21402821	         -0.07940792	          0.99538565	          0.22208621	         -0.25214690	          1.44108033	          0.03877816	         -0.12256388	          0.84284073	          0.06896748	         -0.22697833	
          0.13333324	          1.28231740	          0.72191894	         -0.17271924	         -2.30227089	         -7.96648693	          0.40017009	         30.03308868	         12.44248867	          3.90987992	        -31.61962700	          4.12348413	          0.00000000	          0.00000000	         -9.32409954	         -8.58008957	        -11.84178066	        -45.78052139	        -28.19046211	          0.00000000	          0.00000000	         -8.65376949	         12.07960510	         -2.86756778	        -81.85857085	        451.47188144	        -19.19945707	          1.36738074	          0.00000000	         -0.12047748	          0.00000000	          0.00000000	          0.00000000	          1.82693115	          0.00000000	         -0.22216737	          0.00000000	         -1.34256824	          0.00000000	          0.00000000	          0.00000000	          0.00000000	          1.22321796	          0.65232998	         -0.16171694	          1.21901822	          0.66791528	         -0.09934005	          1.21385849	          0.65123421	         -0.22395156	          1.36286879	          0.38262042	         -0.13710301	          1.14889610	          0.33798289	         -0.22752663	          1.34289432	          0.05586759	         -0.11721060	          0.87421006	          0.16819564	         -0.23286320	          1.28231740	          0.72191894	         -0.17271924	          1.28616560	          0.73436022	         -0.07978011	          1.27846920	          0.70947766	         -0.26565838	          1.13716567	          0.76420319	         -0.15035714	          1.13422298	          0.75314152	         -0.20375808	          1.37299645	          0.38118115	         -0.08764992	          1.13831985	          0.34073305	         -0.27631781	          1.35670626	          0.37853667	         -0.18358161	          1.17211366	          0.32387406	         -0.17514727	          1.34519994	          0.05775800	         -0.08384355	          0.87155020	          0.17356665	         -0.26683858	          1.34130275	          0.06297892	         -0.14501657	          0.87209010	          0.17817678	         -0.20519848	          1.15979755	          1.10276175	         -0.16385041	          1.23839498	          1.06047988	         -0.09928787	          1.24441528	          1.06880796	         -0.22732297	          1.23682034	          1.05342531	         -0.16700056	          1.26870155	          0.91267467	         -0.17373672	          1.34749818	          0.46269172	          0.00034823	          1.29697490	          0.42040992	         -0.28960678	          1.34395218	          0.53175688	         -0.06482843	          1.25779939	          0.47665858	         -0.21436135	          1.38429952	          0.46177498	         -0.08860933	          1.22949326	          0.39319557	         -0.20947205	          1.35568500	          0.16027373	         -0.01606025	          1.00098133	          0.14560492	         -0.27210864	          1.35875618	          0.21391436	         -0.07959076	          1.01708102	          0.22224356	         -0.25165024	          1.44116557	          0.03866940	         -0.12276873	          0.86100000	          0.07274987	         -0.22512576	
